<?xml version="1.0" standalone="no"?>
<!DOCTYPE svg PUBLIC "-//W3C//DTD SVG 20010904//EN"
 "http://www.w3.org/TR/2001/REC-SVG-20010904/DTD/svg10.dtd">
<svg version="1.0" xmlns="http://www.w3.org/2000/svg"
 width="2000.000000pt" height="2000.000000pt" viewBox="0 0 2000.000000 2000.000000"
 preserveAspectRatio="xMidYMid meet">
<metadata>
Created by potrace 1.11, written by Peter Selinger 2001-2013
</metadata>
<g transform="translate(0.000000,2000.000000) scale(0.100000,-0.100000)"
fill="#000000" stroke="none">
<path d="M9727 17924 c-1 -1 -49 -5 -107 -8 -101 -6 -174 -12 -250 -21 -19 -2
-60 -7 -90 -10 -65 -7 -254 -34 -290 -41 -14 -2 -41 -7 -60 -10 -19 -3 -53 -9
-75 -14 -22 -5 -56 -12 -75 -15 -19 -3 -53 -11 -75 -17 -22 -5 -49 -12 -60
-14 -48 -9 -66 -14 -175 -42 -207 -55 -570 -174 -675 -222 -11 -5 -81 -35
-155 -66 -332 -142 -667 -326 -970 -532 -113 -77 -325 -231 -375 -273 -11 -10
-54 -45 -95 -79 -143 -119 -183 -156 -390 -360 -322 -319 -544 -585 -768 -921
-83 -125 -232 -365 -232 -374 0 -2 -14 -28 -31 -57 -55 -92 -205 -398 -264
-538 -31 -74 -60 -144 -65 -155 -72 -166 -227 -667 -264 -855 -2 -14 -16 -79
-29 -145 -14 -66 -28 -138 -31 -160 -4 -22 -11 -65 -16 -95 -5 -30 -12 -75
-15 -100 -3 -25 -7 -61 -10 -80 -7 -50 -13 -106 -20 -180 -3 -36 -8 -83 -10
-105 -15 -150 -18 -603 -18 -2400 0 -2021 3 -2279 28 -2540 18 -196 84 -629
99 -653 2 -4 7 -25 10 -47 39 -242 232 -846 366 -1141 65 -143 85 -184 140
-294 77 -155 149 -284 253 -455 86 -140 306 -457 390 -561 73 -90 146 -178
172 -208 126 -143 184 -206 315 -336 159 -159 217 -214 330 -310 36 -30 67
-57 70 -60 10 -12 199 -159 290 -226 141 -105 384 -265 509 -337 166 -95 269
-150 411 -218 91 -44 178 -86 193 -94 16 -8 33 -15 38 -15 4 0 32 -11 61 -25
161 -74 644 -240 788 -270 8 -2 71 -17 140 -33 106 -25 198 -45 207 -44 2 1
17 -3 34 -8 18 -5 51 -12 73 -15 23 -3 64 -10 91 -15 28 -5 66 -11 85 -14 88
-12 201 -26 260 -31 36 -4 77 -8 92 -10 204 -25 764 -25 1023 0 159 15 340 38
435 55 30 5 71 12 90 15 73 12 236 45 270 55 19 6 46 12 60 15 192 34 749 219
968 320 29 14 55 25 57 25 24 0 445 213 547 277 21 13 40 23 42 23 10 0 231
139 361 227 445 302 841 655 1180 1053 50 58 92 107 95 110 3 3 21 25 40 50
19 25 37 47 40 50 3 3 49 64 101 135 138 187 211 298 356 540 7 11 15 27 20
35 4 8 20 38 36 65 17 28 67 124 112 215 86 171 136 299 154 391 6 30 12 64
15 76 25 118 23 345 -4 468 -5 22 -11 54 -14 72 -14 75 -90 262 -152 372 -33
59 -130 187 -191 251 -194 208 -497 366 -778 406 -27 3 -59 8 -70 11 -11 2
-76 4 -145 4 -409 -1 -799 -185 -1050 -498 -78 -97 -113 -152 -184 -293 -120
-236 -269 -474 -381 -609 -319 -386 -674 -668 -1105 -879 -151 -74 -387 -170
-460 -188 -8 -2 -55 -15 -105 -29 -49 -14 -99 -27 -110 -30 -11 -2 -51 -11
-90 -19 -38 -8 -86 -18 -105 -21 -19 -3 -46 -7 -60 -10 -14 -2 -45 -6 -70 -9
-25 -3 -65 -8 -90 -11 -201 -23 -541 -19 -735 10 -88 12 -209 33 -255 44 -25
5 -57 12 -73 15 -54 9 -304 88 -407 128 -99 38 -383 174 -460 220 -109 65
-300 198 -400 278 -102 82 -356 327 -434 419 -56 66 -172 217 -211 276 -22 33
-42 62 -45 65 -3 3 -12 16 -19 30 -8 14 -39 66 -69 115 -92 152 -257 512 -277
605 -2 8 -10 35 -18 60 -20 59 -58 196 -63 229 -3 14 -7 32 -9 40 -12 32 -43
207 -51 278 -2 27 -6 55 -9 63 -16 57 -20 442 -20 2315 0 1844 4 2228 19 2312
2 10 7 43 10 74 4 31 9 67 11 80 3 13 7 39 10 59 7 47 9 58 35 165 12 50 23
99 26 110 20 101 132 400 214 570 165 344 365 621 649 905 225 224 425 377
684 524 104 59 275 147 287 147 3 0 19 7 35 14 140 64 444 161 600 189 152 29
266 46 341 53 106 10 536 10 614 0 30 -3 75 -9 100 -12 25 -2 56 -7 70 -10 14
-2 41 -7 60 -10 65 -10 145 -27 225 -47 44 -11 85 -21 90 -22 25 -5 223 -69
250 -81 17 -7 66 -27 110 -45 363 -146 721 -383 1022 -677 110 -106 231 -239
290 -319 12 -16 29 -38 38 -49 321 -403 570 -1009 640 -1555 3 -25 8 -56 10
-70 15 -89 19 -417 19 -1825 0 -1465 -2 -1585 -18 -1645 -52 -196 -213 -346
-413 -384 -269 -51 -530 111 -609 379 -17 56 -18 164 -19 1685 -1 894 -5 1650
-9 1680 -20 154 -27 189 -51 290 -25 106 -74 259 -108 335 -36 82 -127 257
-158 303 -16 24 -29 47 -29 52 0 4 -3 10 -7 12 -5 2 -23 26 -42 53 -95 137
-266 319 -414 439 -247 201 -591 365 -907 432 -85 18 -100 20 -190 29 -36 4
-78 9 -95 12 -36 6 -284 5 -340 -2 -22 -2 -65 -7 -95 -10 -206 -23 -533 -126
-710 -223 -25 -14 -61 -34 -80 -45 -65 -35 -214 -139 -290 -201 -73 -59 -234
-216 -275 -266 -11 -14 -38 -48 -61 -75 -256 -311 -430 -746 -473 -1185 -9
-87 -7 -4324 1 -4356 4 -12 9 -45 13 -74 4 -29 9 -62 11 -74 2 -12 6 -32 9
-46 10 -50 13 -66 24 -110 97 -374 287 -706 566 -986 191 -192 348 -305 586
-423 115 -58 342 -143 413 -157 11 -2 35 -7 51 -11 17 -4 32 -7 35 -8 3 -1 25
-5 50 -9 25 -5 52 -10 60 -11 169 -31 418 -35 620 -10 294 36 607 147 862 306
93 58 208 140 244 174 6 5 47 43 91 82 134 121 184 222 179 360 -4 94 -7 106
-42 177 -102 209 -369 291 -572 177 -25 -13 -72 -50 -106 -80 -97 -90 -155
-135 -238 -186 -154 -92 -358 -165 -517 -183 -83 -9 -288 -9 -361 1 -129 16
-289 66 -413 128 -62 31 -197 115 -207 128 -3 4 -15 14 -27 22 -38 26 -146
132 -193 189 -25 30 -47 57 -50 60 -6 6 -76 116 -108 170 -61 104 -132 329
-148 470 -10 82 -10 4154 -1 4235 7 63 9 75 28 165 14 68 68 218 104 291 199
396 531 655 959 746 113 24 370 24 486 0 243 -51 444 -150 630 -310 130 -110
261 -282 329 -432 18 -38 36 -78 41 -87 12 -22 58 -186 70 -249 20 -107 22
-255 24 -1816 3 -1614 3 -1618 24 -1710 114 -492 444 -863 907 -1020 55 -18
116 -36 135 -39 19 -3 41 -7 48 -9 54 -19 296 -25 424 -11 155 16 375 93 522
181 93 57 223 163 300 246 171 186 281 401 338 662 l22 102 1 1665 c0 916 -4
1719 -8 1785 -10 156 -11 166 -37 340 -6 39 -13 84 -15 102 -3 18 -12 65 -21
105 -8 40 -17 81 -19 92 -64 302 -224 721 -395 1035 -227 416 -573 841 -930
1141 -36 30 -67 57 -70 60 -33 36 -305 229 -445 316 -282 176 -759 384 -1031
449 -10 3 -72 18 -136 34 -64 16 -134 32 -155 35 -21 4 -60 11 -88 16 -75 15
-117 22 -145 25 -106 11 -159 17 -185 21 -46 6 -310 18 -400 18 -86 -1 -315
-12 -380 -19 -113 -13 -151 -17 -165 -20 -8 -1 -36 -5 -61 -9 -273 -40 -643
-141 -899 -247 -328 -135 -629 -305 -900 -508 -228 -171 -487 -413 -655 -611
-44 -52 -82 -97 -85 -100 -4 -3 -26 -32 -51 -65 -24 -33 -50 -66 -57 -74 -26
-27 -219 -326 -269 -416 -64 -115 -142 -270 -181 -360 -43 -99 -83 -197 -87
-215 -3 -8 -18 -53 -35 -100 -31 -85 -94 -300 -104 -353 -3 -16 -9 -43 -15
-60 -8 -27 -23 -101 -45 -229 -14 -83 -31 -216 -43 -338 -10 -110 -11 -4491 0
-4633 5 -59 10 -117 13 -130 2 -12 6 -40 9 -62 5 -50 27 -190 40 -255 3 -14 8
-38 11 -55 14 -81 79 -320 120 -443 143 -426 364 -844 632 -1191 552 -715
1315 -1226 2176 -1456 54 -15 110 -29 125 -31 14 -3 40 -9 56 -14 38 -11 236
-46 340 -59 226 -28 319 -34 540 -33 251 1 386 12 615 47 86 14 111 18 170 31
14 3 36 7 50 10 67 13 162 37 224 55 38 11 77 22 86 24 26 5 265 89 350 123
412 165 865 443 1174 722 286 257 483 479 670 757 119 177 177 277 292 503
115 226 275 336 495 338 146 1 274 -52 380 -159 67 -66 131 -176 144 -244 34
-176 13 -262 -129 -530 -199 -376 -450 -734 -731 -1045 -121 -135 -410 -412
-500 -481 -16 -13 -32 -26 -35 -29 -8 -11 -191 -153 -265 -207 -72 -52 -360
-243 -368 -243 -2 0 -41 -23 -87 -50 -82 -50 -387 -205 -485 -247 -142 -62
-340 -137 -492 -186 -145 -48 -471 -134 -568 -152 -146 -26 -259 -45 -305 -50
-30 -4 -62 -9 -70 -10 -8 -2 -47 -6 -87 -10 -40 -4 -85 -8 -100 -10 -183 -22
-693 -22 -878 -1 -16 2 -61 7 -100 11 -91 9 -115 12 -205 26 -74 11 -91 14
-140 24 -14 2 -38 7 -55 10 -28 4 -102 19 -153 29 -13 3 -31 7 -40 10 -9 3
-28 7 -42 10 -89 16 -386 106 -570 173 -213 78 -500 209 -715 327 -132 73
-459 282 -535 343 -8 6 -70 54 -136 106 -121 94 -135 106 -243 201 -166 145
-392 380 -547 566 -96 116 -270 347 -299 398 -11 17 -23 32 -27 32 -4 0 -8 4
-8 9 0 5 -17 36 -38 68 -235 357 -456 827 -593 1261 -34 108 -96 339 -113 422
-22 103 -45 223 -50 256 -4 21 -11 64 -16 94 -13 75 -32 241 -47 410 -10 111
-10 4502 0 4645 4 61 9 121 11 135 4 23 17 141 21 185 2 18 17 123 20 135 1 3
5 30 10 60 5 30 9 57 10 60 9 39 16 71 20 99 3 19 7 37 9 40 2 3 7 23 10 43 3
21 22 97 41 170 20 73 38 140 39 148 12 50 97 296 141 410 110 279 221 507
368 755 113 189 276 431 332 491 5 7 19 24 30 40 106 150 374 441 585 634 56
52 108 100 114 105 35 33 235 192 316 252 526 388 1124 674 1745 833 182 46
356 83 455 96 25 3 52 7 60 9 8 2 38 7 65 10 28 4 57 8 65 10 8 2 51 7 95 11
44 4 94 8 110 10 202 21 717 21 879 -1 17 -2 62 -7 100 -10 38 -4 79 -8 90
-10 12 -2 41 -6 66 -9 25 -3 54 -8 65 -10 11 -2 40 -7 65 -10 49 -7 49 -7 160
-29 41 -9 86 -18 100 -21 191 -35 723 -205 895 -286 11 -5 72 -33 135 -63 520
-241 985 -558 1399 -952 190 -182 490 -525 619 -710 23 -33 55 -79 72 -103 16
-23 30 -47 30 -52 0 -4 3 -10 8 -12 6 -3 49 -63 77 -110 248 -411 388 -704
521 -1093 57 -164 136 -445 158 -560 3 -11 9 -40 15 -65 12 -56 57 -326 66
-400 3 -30 8 -69 10 -85 2 -17 7 -68 10 -115 4 -47 9 -101 12 -120 3 -19 6
-994 8 -2165 2 -1990 3 -2134 20 -2190 23 -80 55 -133 116 -190 160 -150 410
-148 567 4 62 60 97 119 117 198 14 55 15 280 12 2220 -2 1187 -6 2174 -9
2193 -4 19 -9 71 -12 115 -7 83 -12 138 -22 215 -3 25 -8 61 -10 80 -3 19 -16
103 -30 185 -189 1128 -683 2153 -1459 3030 -75 85 -328 340 -416 420 -818
741 -1764 1225 -2824 1444 -55 11 -117 23 -139 27 -21 3 -48 8 -60 10 -11 2
-41 7 -66 10 -25 3 -54 8 -65 10 -18 4 -127 17 -230 29 -42 4 -114 11 -250 21
-75 6 -623 13 -628 8z"/>
<path d="M9930 11582 c-45 -6 -131 -42 -175 -72 -79 -54 -138 -140 -165 -240
-10 -35 -13 -354 -13 -1400 l1 -1355 24 -67 c44 -118 131 -208 242 -250 88
-33 217 -32 305 2 89 35 179 121 223 215 l33 70 3 1370 c2 1225 0 1375 -14
1425 -38 134 -139 240 -267 284 -47 16 -149 25 -197 18z"/>
</g>
</svg>
